<?xml version="1.0" standalone="no"?>
<!DOCTYPE svg PUBLIC "-//W3C//DTD SVG 20010904//EN"
 "http://www.w3.org/TR/2001/REC-SVG-20010904/DTD/svg10.dtd">
<svg version="1.0" xmlns="http://www.w3.org/2000/svg"
 width="600.000000pt" height="600.000000pt" viewBox="0 0 600.000000 600.000000"
 preserveAspectRatio="xMidYMid meet">
<metadata>
Created by potrace 1.16, written by Peter Selinger 2001-2019
</metadata>
<g transform="translate(0.000000,600.000000) scale(0.100000,-0.100000)"
fill="#000000" stroke="none">
<path d="M1223 5339 c-75 -137 -1165 -2182 -1170 -2196 -3 -7 1 -13 10 -13 8
0 43 -39 78 -87 191 -263 424 -484 650 -618 449 -266 905 -204 1285 173 130
128 279 324 379 499 10 18 26 33 35 35 12 2 -97 211 -457 872 -261 478 -472
870 -470 873 2 2 34 -6 71 -17 328 -102 727 -87 1087 39 l106 38 6 -816 c4
-449 7 -1100 7 -1447 l0 -630 -137 -12 c-527 -47 -911 -195 -1145 -440 -90
-95 -127 -147 -178 -254 -82 -171 -108 -366 -75 -549 l18 -99 1672 0 1673 0
17 91 c42 215 -9 478 -127 659 -57 87 -166 201 -259 270 -238 177 -628 297
-1055 326 l-101 7 -6 876 c-4 482 -7 1139 -7 1460 0 551 1 583 18 576 107 -44
235 -88 317 -108 191 -47 232 -52 455 -52 186 1 230 4 324 24 60 12 127 29
149 37 22 8 41 13 42 12 2 -2 -205 -392 -459 -868 -383 -716 -460 -866 -445
-870 9 -3 43 -41 74 -85 154 -216 380 -440 576 -573 107 -73 270 -148 386
-179 129 -34 327 -38 443 -9 328 83 615 332 884 769 27 42 54 77 62 77 8 0 14
3 14 6 0 3 -278 516 -617 1139 -380 698 -622 1130 -627 1125 -5 -5 -21 -31
-35 -57 -29 -53 -75 -83 -221 -145 -192 -81 -331 -110 -535 -111 -148 0 -254
11 -370 39 -188 46 -435 152 -435 186 0 17 -11 18 -145 18 l-145 0 0 -30 c0
-33 -20 -46 -155 -100 -173 -69 -323 -100 -520 -107 -265 -10 -476 37 -717
160 -119 61 -131 71 -174 143 -9 15 -16 8 -51 -57z m418 -1233 c200 -368 366
-673 367 -678 2 -4 -327 -8 -732 -8 -405 0 -736 3 -736 6 0 16 726 1362 731
1356 3 -4 170 -308 370 -676z m3478 -21 l359 -660 -730 -3 c-402 -1 -733 0
-736 3 -3 2 159 311 358 686 339 635 364 679 376 657 7 -12 175 -320 373 -683z
m-2999 -961 c0 -12 -86 -130 -154 -212 -337 -404 -709 -460 -1121 -170 -88 62
-330 291 -374 356 l-22 32 835 0 c460 0 836 -2 836 -6z m3455 -21 c-107 -167
-289 -357 -417 -437 -115 -71 -201 -98 -329 -104 -94 -4 -118 -1 -198 22 -155
44 -305 132 -459 268 -80 71 -252 255 -252 271 0 4 376 7 836 7 l836 0 -17
-27z m-2340 -1363 c587 -50 959 -223 1104 -517 35 -69 61 -160 61 -210 l0 -33
-1405 0 -1405 0 0 31 c0 52 30 150 66 220 151 287 514 457 1084 508 137 12
356 12 495 1z"/>
</g>
</svg>
